<?xml version="1.0" encoding="UTF-8" standalone="no"?>
<!-- Created with Inkscape (http://www.inkscape.org/) -->

<svg
   xmlns:dc="http://purl.org/dc/elements/1.1/"
   xmlns:cc="http://creativecommons.org/ns#"
   xmlns:rdf="http://www.w3.org/1999/02/22-rdf-syntax-ns#"
   xmlns:svg="http://www.w3.org/2000/svg"
   xmlns="http://www.w3.org/2000/svg"
   xmlns:sodipodi="http://sodipodi.sourceforge.net/DTD/sodipodi-0.dtd"
   xmlns:inkscape="http://www.inkscape.org/namespaces/inkscape"
   width="420mm"
   height="297mm"
   viewBox="0 0 420 297"
   version="1.1"
   id="svg5164"
   sodipodi:docname="Map2.svg"
   inkscape:version="0.92.1 r15371">
  <defs
     id="defs5158" />
  <sodipodi:namedview
     id="base"
     pagecolor="#ffffff"
     bordercolor="#666666"
     borderopacity="1.0"
     inkscape:pageopacity="0.0"
     inkscape:pageshadow="2"
     inkscape:zoom="0.35"
     inkscape:cx="960.87576"
     inkscape:cy="492.14224"
     inkscape:document-units="mm"
     inkscape:current-layer="layer1"
     showgrid="false"
     inkscape:window-width="1366"
     inkscape:window-height="705"
     inkscape:window-x="-8"
     inkscape:window-y="-8"
     inkscape:window-maximized="1" />
  <metadata
     id="metadata5161">
    <rdf:RDF>
      <cc:Work
         rdf:about="">
        <dc:format>image/svg+xml</dc:format>
        <dc:type
           rdf:resource="http://purl.org/dc/dcmitype/StillImage" />
        <dc:title></dc:title>
      </cc:Work>
    </rdf:RDF>
  </metadata>
  <g
     inkscape:label="Calque 1"
     inkscape:groupmode="layer"
     id="layer1">
    <path
       style="fill:none;stroke:#000000;stroke-width:0.26458332px;stroke-linecap:butt;stroke-linejoin:miter;stroke-opacity:1"
       d="m 19.654762,297 c 0,-4.53573 0,-9.07145 0,-13.60715 0,-0.17965 0.08471,-2.85438 0,-3.02382 -0.159369,-0.31874 -0.596584,-0.43722 -0.755953,-0.75594 -0.08472,-0.16944 0,-2.84419 0,-3.02382 0,-1.76389 0,-3.52776 0,-5.29166 0,-0.50398 0.159369,-1.03381 0,-1.51191 -0.356359,-1.06908 -1.2909,-1.91879 -1.511904,-3.02382 -0.06158,-0.30789 0.142423,-4.25085 0,-4.5357 -0.159369,-0.31874 -0.596584,-0.43722 -0.755953,-0.75595 -0.115031,-0.23007 0,-1.92741 0,-2.26786 0,-1.51191 0,-3.02381 0,-4.53572 0,-0.75595 0,-1.5119 0,-2.26785 0,-0.25199 0.17818,-0.57777 0,-0.75595 -0.178179,-0.17818 -0.577773,0.17818 -0.755952,0 -0.232036,-0.23204 0.140279,-2.4627 0,-3.02381 -0.136658,-0.54663 -0.577773,-0.97737 -0.755953,-1.51191 -0.07968,-0.23905 0.07968,-0.5169 0,-0.75595 -0.178179,-0.53454 -0.676267,-0.95412 -0.755952,-1.5119 -0.17818,-1.24726 0,-2.51985 0,-3.77977 0,-3.27579 0,-6.55158 0,-9.82738 0,-0.76128 0.139352,-4.11766 0,-4.53571 -0.112691,-0.33808 -0.596584,-0.43722 -0.755952,-0.75596 -0.247505,-0.49501 0.223619,-3.1089 0,-3.77976 -0.17818,-0.53453 -0.619295,-0.96527 -0.755953,-1.5119 -0.105223,-0.42089 0.130511,-3.64925 0,-3.77976 -0.178179,-0.17818 -0.577772,0.17818 -0.755952,0 -0.356359,-0.35636 0.225381,-1.06114 0,-1.51191 -0.159369,-0.31874 -0.596584,-0.43721 -0.755952,-0.75595 -0.161428,-0.32286 0,-3.48093 0,-3.77976 0,-0.25199 0.178179,-0.57778 0,-0.75596 -0.17818,-0.17817 -0.577773,0.17818 -0.755953,0 -0.154544,-0.15454 0.149865,-1.96812 0,-2.26785 -0.159369,-0.31874 -0.5965834,-0.43722 -0.7559522,-0.75596 -0.1150311,-0.23006 0,-1.9274 0,-2.26785 0,-1.76389 0,-3.52778 0,-5.29167 0,-0.17964 0.084716,-2.85437 0,-3.02381 -0.1593686,-0.31873 -0.5965836,-0.43721 -0.7559524,-0.75595 -0.1126906,-0.22538 0.1126908,-0.53057 0,-0.75595 -0.1593686,-0.31874 -0.5965836,-0.43722 -0.7559524,-0.75596 -0.1366888,-0.27337 0,-3.25396 0,-3.77976 0,-3.27579 0,-6.55158 0,-9.82738 0,-0.522 0.1149186,-2.79397 0,-3.02381 -0.1593686,-0.31874 -0.5965836,-0.43721 -0.7559522,-0.75595 -0.2403713,-0.48074 0.2086986,-3.15367 0,-3.77976 -0.1126908,-0.33807 -0.6432618,-0.41788 -0.7559524,-0.75595 -0.1152543,-0.34577 0.1681909,-2.68743 0,-3.02381 -0.1593688,-0.31874 -0.5965838,-0.43722 -0.7559524,-0.75595 -0.135971,-0.27195 0.00438,-3.75785 0,-3.77977 -0.1105024,-0.55251 -0.6192948,-0.96527 -0.7559524,-1.5119 -0.1222304,-0.48892 0.071272,-1.013 0,-1.51191 -0.1817084,-1.27196 -0.574244,-2.5078 -0.7559524,-3.77976 -0.071272,-0.4989 0.1593688,-1.0338 0,-1.5119 -0.1126908,-0.33808 -0.5965836,-0.43722 -0.7559524,-0.75596 -0.1081778,-0.21635 0,-3.37592 0,-3.77976 0,-4.28373 0,-8.56746 0,-12.85119 0,-1.5119 0,-3.02381 0,-4.53571 0,-0.25199 -0.1781797,-0.57777 0,-0.75595 0.1781797,-0.17818 0.6432616,0.22538 0.7559524,0 0.7559524,-1.51191 -0.3779761,-1.13393 0,-2.26786 0.3563593,-1.06908 1.1555455,-1.95473 1.5119048,-3.02381 0.2693085,-0.80793 -0.3195831,-3.1406 0,-3.77976 0.1126908,-0.22538 0.5777727,0.17818 0.7559524,0 0.3563594,-0.35636 -0.2253816,-1.06114 0,-1.51191 0.1593686,-0.31873 0.5039683,-0.50397 0.7559524,-0.75595 0,-0.50397 -0.1769552,-1.04002 0,-1.5119 0.5935253,-1.58274 1.733318,-2.9321 2.267857,-4.53572 0.2390532,-0.71716 -0.2807536,-1.56597 0,-2.26786 0.2646972,-0.66174 1.0842732,-0.94173 1.5119052,-1.5119 1.980993,-2.64132 -0.13817,-0.34144 0.755952,-3.02381 0.225381,-0.67614 1.193167,-0.87443 1.511905,-1.5119 0.11269,-0.22539 -0.112691,-0.53058 0,-0.75596 0.159368,-0.31873 0.596583,-0.43721 0.755952,-0.75595 0.302381,-0.60476 -0.302381,-1.66309 0,-2.26786 1.573046,-3.14609 -0.05219,0.80814 1.511905,-0.75595 0.377976,-0.37798 -0.377976,-1.88988 0,-2.26786 0.178179,-0.17818 0.577773,0.17818 0.755952,0 0.17818,-0.17818 -0.112691,-0.53057 0,-0.75595 0.159369,-0.31874 0.596584,-0.43721 0.755953,-0.75595 0.11269,-0.225383 -0.17818,-0.577774 0,-0.755955 0.178179,-0.178178 0.577772,0.178181 0.755952,0 0.17818,-0.178178 -0.17818,-0.57777 0,-0.755951 0.17818,-0.178179 0.577772,0.178181 0.755952,0 0.17818,-0.178179 -0.11269,-0.530572 0,-0.755952 0.159369,-0.318738 0.503968,-0.503968 0.755953,-0.755952 0,-0.50397 -0.159369,-1.033798 0,-1.511905 0.225381,-0.676146 1.193167,-0.87443 1.511904,-1.511906 0.112691,-0.22538 0,-0.503968 0,-0.755952 0.251985,-0.503968 0.443405,-1.043083 0.755953,-1.511903 0.197672,-0.296511 0.596583,-0.437216 0.755952,-0.755954 0.112691,-0.22538 -0.178179,-0.577771 0,-0.755952 0.17818,-0.178178 0.577773,0.178181 0.755953,0 0.178179,-0.178178 -0.07969,-0.516898 0,-0.755952 0.356359,-1.069078 1.155545,-1.954731 1.511904,-3.023809 0.159369,-0.478107 -0.225381,-1.061143 0,-1.511906 1.729848,-3.459697 -0.313321,3.207822 1.511905,-2.267857 0.159369,-0.478105 -0.356359,-1.155544 0,-1.511903 0.178181,-0.178181 0.577773,0.178178 0.755952,0 0.178181,-0.178181 -0.139774,-0.546291 0,-0.755955 0.894426,-1.341636 2.798257,-2.471086 3.779763,-3.77976 0.338071,-0.450763 0.357529,-1.113483 0.755952,-1.511906 0.398422,-0.39842 1.199356,-0.287129 1.511905,-0.755952 0.279551,-0.419327 -0.225382,-1.06114 0,-1.511906 0.112689,-0.22538 0.577771,0.178181 0.755952,0 0.178178,-0.178178 -0.178181,-0.57777 0,-0.755951 0.178178,-0.178179 0.503968,0 0.755952,0 0,-0.251984 -0.112692,-0.530572 0,-0.755952 0.159369,-0.318738 0.503967,-0.503968 0.755951,-0.755952 0.251987,-0.251983 0.437216,-0.596585 0.755955,-0.755954 0.22538,-0.112688 0.57777,0.178181 0.755951,0 0.178181,-0.178178 -0.178181,-0.57777 0,-0.755951 0.178181,-0.178179 0.530572,0.112691 0.755952,0 0.318738,-0.15937 0.437216,-0.596583 0.755954,-0.755952 0.22538,-0.112691 0.577771,0.178178 0.755952,0 0.178178,-0.178181 -0.178181,-0.577773 0,-0.755954 0.178178,-0.178179 0.530571,0.112691 0.755951,0 3.146095,-1.573046 -0.80814,0.05219 0.755952,-1.511904 0.178181,-0.178181 0.577773,0.178179 0.755954,0 0.178179,-0.178181 0,-0.503967 0,-0.755951 0.251984,0 0.530569,0.112689 0.755952,0 0.318738,-0.159369 0.503968,-0.503971 0.755951,-0.755954 0.251984,-0.251984 0.596586,-0.437214 0.755955,-0.755952 0.521364,-1.042728 -0.915501,-0.67618 0.755951,-1.511906 1.042728,-0.521364 0.676177,0.915501 1.511904,-0.755952 0.112691,-0.22538 -0.178179,-0.577773 0,-0.755951 0.178181,-0.178181 0.577773,0.178178 0.755954,0 1.564092,-1.564092 -2.39014,0.06114 0.755951,-1.511906 0.225383,-0.112689 0.530572,0.112691 0.755952,0 0.907142,-0.45357 1.360715,-1.814285 2.267858,-2.267858 0.225382,-0.112688 0.577773,0.178181 0.755951,0 0.178181,-0.178178 -0.178178,-0.57777 0,-0.755951 0.178181,-0.178178 0.530572,0.112691 0.755954,0 0.318736,-0.159369 0.437214,-0.596583 0.755952,-0.755952 0.225383,-0.112691 0.530572,0.112692 0.755952,0 0.318738,-0.159369 0.503967,-0.503967 0.755954,-0.755951 0.251984,-0.251984 0.596582,-0.437216 0.755951,-0.755955 0.112692,-0.22538 -0.178181,-0.57777 0,-0.755951 0.35636,-0.35636 1.061141,0.225382 1.511904,0 3.146094,-1.573046 -0.808138,0.05219 0.755954,-1.511906 0.178178,-0.178178 0.530569,0.112691 0.755952,0 0.318738,-0.159367 0.437216,-0.596583 0.755951,-0.755952 0.225383,-0.112691 0.530572,0.112692 0.755954,0 0.318736,-0.159369 0.437214,-0.596582 0.755952,-0.755951 0.476906,-0.238453 3.302855,0.238453 3.779761,0 0.318738,-0.159369 0.437216,-0.596585 0.755954,-0.755952 0.22538,-0.112691 0.503968,0 0.755952,0 0.251984,0 0.503967,0 0.755951,0 1.511906,0 3.023809,0 4.535715,0 0.340448,0 2.037795,0.11503 2.267858,0 0.318735,-0.159369 0.437213,-0.596585 0.755951,-0.755954 0.225383,-0.112689 0.503968,0 0.755952,0 0.251984,0 0.503968,0 0.755954,0 1.511904,0 3.023809,0 4.535713,0 0.251983,0 0.577773,0.178181 0.755954,0 0.178178,-0.178179 -0.225383,-0.64326 0,-0.755952 0.604761,-0.302382 1.663094,0.302382 2.267855,0 0.318738,-0.159369 0.437216,-0.596582 0.755954,-0.755951 0.450763,-0.225383 1.155544,0.356359 1.511903,0 0.178181,-0.178181 -0.178178,-0.577774 0,-0.755955 0.178181,-0.178178 0.577773,0.178181 0.755954,0 0.178179,-0.178178 -0.178181,-0.57777 0,-0.755951 0.178179,-0.178179 0.516898,0.07968 0.755952,0 0.534538,-0.178179 1.043083,-0.443405 1.511903,-0.755952 0.593019,-0.395346 0.918888,-1.11656 1.511906,-1.511906 1.302965,-0.868643 1.142685,-0.755951 2.267858,-0.755951 0.251984,0 0.530571,0.112691 0.755951,0 0.318739,-0.15937 0.437216,-0.596583 0.755952,-0.755952 0.225383,-0.112691 0.530572,0.112691 0.755954,0 0.318736,-0.159369 0.437214,-0.596585 0.755952,-0.755954 0.198771,-0.09939 2.628506,0 3.023809,0 2.015872,0 4.031752,0 6.047622,0 0.18334,0 2.24354,0.02432 2.26785,0 1.5641,-1.564093 -2.39014,0.06114 0.75596,-1.511904 0.16943,-0.08472 2.84417,0 3.02381,0 2.51984,0 5.03968,0 7.55952,0 4.53571,0 9.07143,0 13.60714,0 0.18334,0 2.24355,0.02432 2.26786,0 0.17818,-0.178181 -0.17818,-0.577773 0,-0.755951 0.15454,-0.154546 1.96813,0.149862 2.26786,0 0.31873,-0.159369 0.43721,-0.596585 0.75595,-0.755954 0.48307,-0.241533 2.41534,0.202821 3.02381,0 0.53454,-0.178179 0.97736,-0.577771 1.5119,-0.755952 0.23906,-0.07968 0.57778,0.178181 0.75596,0 0.39842,-0.398423 0.35753,-1.113483 0.75595,-1.511906 0.37797,-0.377976 1.88988,0.377979 2.26786,0 0.17817,-0.178178 -0.17819,-0.577771 0,-0.755952 0.37797,-0.377975 1.88988,0.377976 2.26785,0 0.17818,-0.178178 0,-0.503967 0,-0.755951 0.25199,0 0.57777,0.178178 0.75595,0 0.17819,-0.178181 -0.17818,-0.577773 0,-0.755952 0.17819,-0.178181 0.53058,0.112689 0.75596,0 0.31873,-0.159369 0.43721,-0.596585 0.75595,-0.755954 0.45076,-0.22538 1.06114,0.225383 1.5119,0 2.50718,-2.507178 -0.71271,0.356359 1.51191,-0.755952 0.31874,-0.159369 0.43721,-0.596582 0.75595,-0.755951 0.22538,-0.112692 0.53057,0.112691 0.75595,0 0.31874,-0.159369 0.43722,-0.596585 0.75596,-0.755955 0.45076,-0.22538 1.06114,0.225383 1.5119,0 0.31874,-0.159366 0.43722,-0.596582 0.75595,-0.755951 0.47514,-0.237567 2.54868,0.237567 3.02381,0 0.63748,-0.318738 0.83576,-1.286523 1.51191,-1.511903 0.75146,-0.250489 3.13742,0.321169 3.77976,0 0.22538,-0.112692 -0.17818,-0.577774 0,-0.755955 0.11731,-0.117313 1.9737,0.09805 2.26786,0 0.53454,-0.178178 0.97736,-0.57777 1.5119,-0.755951 0.48888,-0.16296 2.95434,0 3.77976,0 1.51191,0 3.02381,0 4.53572,0 0.34045,0 2.03779,0.11503 2.26785,0 0.31874,-0.159369 0.43722,-0.596584 0.75596,-0.755952 0.22538,-0.112691 0.53057,0.11269 0.75595,0 0.31874,-0.159369 0.43721,-0.596584 0.75595,-0.755953 0.22538,-0.112691 0.5169,0.07969 0.75595,0 0.53454,-0.178179 0.97737,-0.577773 1.51191,-0.755952 0.23905,-0.07968 0.53057,0.112691 0.75595,0 0.31874,-0.159369 0.43722,-0.596584 0.75595,-0.755953 0.22539,-0.11269 0.57778,0.17818 0.75596,0 0.17818,-0.178179 -0.22539,-0.643261 0,-0.755952 0.47513,-0.237566 2.54867,0.237566 3.02381,0 0.31873,-0.159369 0.43721,-0.596584 0.75595,-0.755952 0.45076,-0.225382 1.06114,0.225381 1.5119,0 0.31874,-0.159369 0.43722,-0.596584 0.75596,-0.755953 0.22538,-0.11269 0.53057,0.112691 0.75595,0 0.31873,-0.159368 0.43721,-0.596583 0.75595,-0.755952 0.29973,-0.149864 2.11331,0.154544 2.26786,0 0.17818,-0.17818 -0.17818,-0.577773 0,-0.755952 0.17818,-0.17818 0.50396,0 0.75595,0 0.25198,0 0.50397,0 0.75595,0 3.27579,0 6.55159,0 9.82738,0 4.03175,0 8.0635,0 12.09524,0 0.18334,0 2.24354,-0.02431 2.26786,0 0.17818,0.178179 -0.17818,0.577772 0,0.755952 0.17818,0.17818 0.50396,0 0.75595,0 1.25992,0 2.51984,0 3.77976,0 0.75595,0 1.5507,0.239053 2.26786,0 0.33807,-0.112691 0.43721,-0.596584 0.75595,-0.755952 0.21269,-0.106343 4.7138,0 5.29167,0 0.25198,0 0.50397,0 0.75595,0 0.25198,0 0.53057,0.11269 0.75595,0 0.31874,-0.159369 0.43722,-0.596584 0.75596,-0.755953 0.45903,-0.229516 4.07668,0.229516 4.53571,0 0.31874,-0.159369 0.43721,-0.596583 0.75595,-0.755952 0.47691,-0.238454 3.30286,0.238453 3.77976,0 0.31874,-0.159369 0.43722,-0.596584 0.75595,-0.755953 0.22539,-0.11269 0.50397,0 0.75596,0 0.25198,0 0.50397,0 0.75595,0 1.25992,0 2.51984,0 3.77976,0 0.25199,0 0.50397,0 0.75596,0 0.25198,0 0.57777,0.17818 0.75595,0 0.17818,-0.178179 -0.17818,-0.577772 0,-0.755952 0.35636,-0.356359 1.06114,0.225382 1.5119,0 0.31874,-0.159369 0.43722,-0.596584 0.75595,-0.755952 0.23006,-0.115031 1.92741,0 2.26786,0 4.28373,0 8.56746,0 12.8512,0 0.75594,0 1.5119,0 2.26784,0 0.25199,0 0.57778,0.178179 0.75597,0 0.49493,-0.494933 -0.76298,-1.761554 0.75594,-2.267857 0.47811,-0.159369 1.00793,0 1.51191,0 0.50395,-0.503969 0.91887,-1.11656 1.51191,-1.511905 0.20966,-0.139776 0.50395,0 0.75594,0 0.75597,0 1.52659,0.148254 2.26785,0 3.04205,-0.608409 0.34735,-0.551639 2.26788,-1.511905 0.23005,-0.115031 1.92741,0 2.26785,0 1.76389,0 3.52777,0 5.29166,0 0.17963,0 2.85438,0.08472 3.02382,0 0.31872,-0.159369 0.4372,-0.5965836 0.75594,-0.7559522 1.04272,-0.5213641 0.6762,0.9155002 1.51191,-0.7559524 0.11269,-0.2253816 -0.17817,-0.5777727 0,-0.7559524 0.17817,-0.1781797 0.53057,0.1126908 0.75594,0 0.63749,-0.3187374 0.83577,-1.2865232 1.51191,-1.5119048 0.4781,-0.1593686 1.03381,0.1593688 1.51191,0 0.33808,-0.1126908 0.41788,-0.6432616 0.75597,-0.7559524 0.4781,-0.1593686 1.06113,0.2253816 1.51188,0 0.2254,-0.1126906 -0.17817,-0.5777728 0,-0.7559524 0.37798,-0.3779761 1.88989,0.3779763 2.26787,0 0.17817,-0.1781797 -0.17819,-0.5777725 0,-0.7559522 0.37796,-0.3779763 1.88987,0.3779761 2.26785,0 0.17817,-0.1781796 -0.17817,-0.5777727 0,-0.7559524 0.15455,-0.1545442 1.96813,0.1498645 2.26785,0 0.31875,-0.1593688 0.43723,-0.5965838 0.75597,-0.7559524 0.48305,-0.2415349 2.41533,0.2028219 3.02379,0 0.53454,-0.1781797 0.97737,-0.5777727 1.51191,-0.7559524 0.47448,-0.1581587 2.41525,0 3.02382,0 2.01586,0 4.03174,0 6.0476,0 0.18336,0 2.24356,0.024312 2.26788,0 0.17817,-0.1781797 -0.1782,-0.5777727 0,-0.7559524 0.17817,-0.1781797 0.50395,0 0.75594,0 0.25199,0 0.50398,0 0.75597,0 0.26387,0 4.40584,0.086569 4.5357,0 0.59301,-0.3953452 0.90074,-1.14521395 1.51191,-1.51190471 0.68328,-0.40997273 1.55514,-0.39959299 2.26785,-0.75595237 0.31874,-0.15936872 0.43722,-0.59658362 0.75596,-0.75595242 0.22537,-0.1126907 0.53057,0.1126908 0.75594,0 0.31875,-0.1593687 0.41789,-0.6432616 0.75597,-0.7559523 0.4781,-0.1593688 1.03378,0.1593687 1.51188,0 0.33809,-0.1126907 0.43723,-0.5965835 0.75597,-0.7559524 0.23006,-0.115031 1.92741,0 2.26785,0"
       id="path5181"
       inkscape:connector-curvature="0" />
    <path
       style="fill:none;stroke:#000000;stroke-width:0.26458332px;stroke-linecap:butt;stroke-linejoin:miter;stroke-opacity:1"
       d="m 19.654762,4.4464202 c 0,3.2757935 0,6.5515868 0,9.8273808 0,0.340449 -0.115031,2.037795 0,2.267857 0.159368,0.318738 0.596583,0.437215 0.755952,0.755952 0.237566,0.475133 -0.237566,2.548677 0,3.02381 0.112691,0.225381 0.577773,-0.17818 0.755952,0 0.154545,0.154544 -0.149864,1.968128 0,2.267857 0.159369,0.318737 0.596584,0.437215 0.755953,0.755952 0.225381,0.450763 -0.35636,1.155546 0,1.511905 0.178179,0.17818 0.577773,-0.178179 0.755952,0 0.377976,0.377976 -0.377976,1.889881 0,2.267856 0.17818,0.178181 0.577773,-0.178178 0.755953,0 0.02431,0.02432 0,2.08452 0,2.267858 0,5.291666 0,10.583333 0,15.875 0,4.283731 0,8.567459 0,12.85119 0,0.183338 -0.02431,2.243545 0,2.267858 0.178179,0.178178 0.577772,-0.178181 0.755952,0 0.234078,0.234079 -0.234079,3.545684 0,3.779761 0.178179,0.178181 0.577773,-0.178179 0.755952,0 0.17818,0.178181 0,0.50397 0,0.755954 0,1.763887 0,3.527777 0,5.291666 0,1.25992 0,2.519842 0,3.779761 0,0.251984 0,0.503968 0,0.755952 0,0.251984 -0.11269,0.530571 0,0.755954 0.159369,0.318736 0.596584,0.437213 0.755953,0.755952 0.205047,0.410093 -0.206846,2.816963 0,3.023809 0.178179,0.178181 0.577772,-0.178179 0.755952,0 0.356359,0.356359 -0.225381,1.061143 0,1.511906 0.159369,0.318735 0.596582,0.437213 0.755952,0.755951 0.149865,0.299728 -0.154544,2.113312 0,2.267858 0.178181,0.178178 0.577773,-0.178181 0.755954,0 0.178178,0.178178 0,0.503968 0,0.755951 0,2.015874 0,4.031748 0,6.047619 0,2.015873 0,4.031747 0,6.04762 0,0.395301 -0.09939,2.825039 0,3.02381 0.159366,0.31874 0.596582,0.43721 0.755951,0.75595 0.225381,0.45076 -0.225382,1.06114 0,1.51191 0.15937,0.31873 0.596583,0.43721 0.755952,0.75595 0.229516,0.45903 -0.229515,4.07668 0,4.53571 0.934133,1.86827 0.755952,-0.26094 0.755952,1.51191 0,0.18334 -0.02432,2.24354 0,2.26785 0.178181,0.17819 0.577773,-0.17817 0.755954,0 0.02432,0.0243 0,2.08452 0,2.26786 0,5.03968 0,10.07937 0,15.11905 0,0.35643 -0.03426,3.7455 0,3.77976 0.178178,0.17818 0.577771,-0.17818 0.755952,0 0.178181,0.17818 -0.112692,0.53057 0,0.75595 0.159369,0.31874 0.596582,0.43722 0.755951,0.75596 0.09773,0.19545 0,3.99989 0,4.53571 0,0.25198 0,0.50397 0,0.75595 0,0.25199 -0.178178,0.57777 0,0.75595 0.178181,0.17818 0.577773,-0.17818 0.755954,0 0.35636,0.35636 -0.225382,1.06115 0,1.51191 0.159367,0.31874 0.596583,0.43721 0.755952,0.75595 0.22538,0.45077 -0.225383,1.06114 0,1.51191 0.159369,0.31873 0.596583,0.43721 0.755952,0.75595 0.229515,0.45903 -0.229516,4.07668 0,4.53571 0.159369,0.31874 0.596585,0.43722 0.755951,0.75596 0.09939,0.19877 0,2.6285 0,3.02381 0,2.01587 0,4.03174 0,6.04761 0,1.00794 0,2.01588 0,3.02381 0,0.25199 -0.178178,0.57778 0,0.75595 0.178181,0.17819 0.577774,-0.17817 0.755955,0 0.356359,0.35636 -0.35636,1.15555 0,1.51191 0.178178,0.17818 0.57777,-0.17818 0.755951,0 0.206846,0.20685 -0.205047,2.61372 0,3.02381 0.159369,0.31874 0.596583,0.43722 0.755952,0.75595 0.225382,0.45077 -0.35636,1.15555 0,1.51191 0.178181,0.17818 0.577773,-0.17818 0.755954,0 0.356359,0.35636 -0.225383,1.06114 0,1.5119 0.159367,0.31874 0.596583,0.43722 0.755952,0.75595 0.22538,0.45077 -0.35636,1.15555 0,1.51191 0.178178,0.17818 0.577773,-0.17818 0.755951,0 0.35636,0.35636 -0.356359,1.15554 0,1.5119 0.178181,0.17818 0.577774,-0.17817 0.755952,0 0.493204,0.49321 -0.493202,1.0187 0,1.51191 0.178181,0.17818 0.577773,-0.17818 0.755954,0 0.206843,0.20684 -0.205049,2.61371 0,3.02381 0.159369,0.31873 0.503968,0.50397 0.755952,0.75595 0,0.50397 -0.159369,1.0338 0,1.51191 0.112691,0.33807 0.596582,0.43721 0.755951,0.75595 0.112692,0.22538 -0.112688,0.53057 0,0.75595 0.15937,0.31874 0.596586,0.43722 0.755955,0.75595 0.112688,0.22538 -0.178181,0.57777 0,0.75596 0.178178,0.17817 0.57777,-0.17819 0.755951,0 0.178179,0.17817 -0.178181,0.57777 0,0.75595 0.178179,0.17818 0.577774,-0.17818 0.755952,0 0.356359,0.35636 -0.22538,1.06114 0,1.5119 0.159369,0.31874 0.596585,0.43722 0.755952,0.75595 0.112691,0.22538 -0.112689,0.53058 0,0.75596 0.159369,0.31873 0.596585,0.43721 0.755954,0.75595 0.112688,0.22538 -0.112692,0.53057 0,0.75595 0.159369,0.31874 0.596582,0.43722 0.755951,0.75595 0.149866,0.29973 -0.154543,2.11332 0,2.26786 0.178181,0.17818 0.643263,-0.22538 0.755952,0 0.225383,0.45076 -0.159369,1.0338 0,1.5119 0.112691,0.33808 0.596585,0.43722 0.755954,0.75596 0.22538,0.45076 -0.356359,1.15554 0,1.5119 0.178179,0.17818 0.577771,-0.17818 0.755952,0 0.178178,0.17818 0,0.50397 0,0.75596 0.251984,0 0.577773,-0.17819 0.755952,0 0.178181,0.17817 -0.178179,0.57777 0,0.75595 0.178181,0.17818 0.577773,-0.17818 0.755951,0 0.178181,0.17818 -0.178178,0.57777 0,0.75595 0.178181,0.17818 0.577773,-0.17818 0.755954,0 0.35636,0.35636 -0.225382,1.06114 0,1.5119 0.15937,0.31874 0.596583,0.43722 0.755952,0.75596 0.112691,0.22538 -0.178181,0.57777 0,0.75595 0.178181,0.17818 0.577773,-0.17818 0.755952,0 0.178181,0.17818 -0.112689,0.53057 0,0.75595 0.159369,0.31874 0.596585,0.43722 0.755954,0.75595 0.112689,0.22538 -0.112691,0.53058 0,0.75596 1.573046,3.14609 -0.05219,-0.80814 1.511903,0.75595 0.178181,0.17818 -0.178178,0.57777 0,0.75595 0.178181,0.17818 0.577773,-0.17818 0.755952,0 0,2.01588 -0.251984,-0.25198 0.755954,0.75595 0.178178,0.17818 -0.178181,0.57778 0,0.75595 0.377976,0.37798 1.889879,-0.37797 2.267857,0 0.178179,0.17819 -0.178181,0.57778 0,0.75596 0.178179,0.17818 0.530569,-0.11269 0.755952,0 0.318738,0.15937 0.503968,0.50397 0.755952,0.75595 0.251984,0.25198 0.596585,0.43721 0.755951,0.75595 0,2.01588 -0.251984,-0.25198 0.755955,0.75595 1.564092,1.5641 -2.39014,-0.0611 0.755951,1.51191 0.225383,0.11269 0.577773,-0.17818 0.755952,0 0.178181,0.17818 -0.178179,0.57777 0,0.75595 0.178181,0.17818 0.503968,0 0.755954,0 0.251984,0 0.503968,0 0.755952,0 2.015873,0 -0.251984,-0.25198 0.755951,0.75596 0.377976,0.37797 1.889882,-0.37798 2.267858,0 0.178181,0.17817 -0.112692,0.53056 0,0.75595 0.159369,0.31874 0.596582,0.43721 0.755951,0.75595 0.112692,0.22538 -0.112688,0.53057 0,0.75595 0.15937,0.31874 0.596586,0.43722 0.755955,0.75595 0.521364,1.04273 -0.915501,0.67618 0.755951,1.51191 0.22538,0.11269 0.577774,-0.17818 0.755952,0 0.356359,0.35636 -0.22538,1.06114 0,1.5119 0.318738,0.63748 1.193168,0.87443 1.511906,1.51191 0.112688,0.22538 -0.178181,0.57777 0,0.75595 0.356359,0.35636 1.155544,-0.35636 1.511903,0 0.178181,0.17818 -0.112689,0.53057 0,0.75595 0.835726,1.67146 0.469178,0.23459 1.511906,0.75595 3.146091,1.57305 -0.808141,-0.0522 0.755952,1.51191 0.178181,0.17818 0.577773,-0.17818 0.755951,0 0.178181,0.17818 -0.178178,0.57777 0,0.75595 1.564092,1.56409 -0.06114,-2.39014 1.511906,0.75595 0.112691,0.22539 -0.178181,0.57778 0,0.75596 0.178181,0.17818 0.530572,-0.11269 0.755952,0 0.318738,0.15937 0.437216,0.59658 0.755954,0.75595 0.22538,0.11269 0.57777,-0.17818 0.755951,0 0.178179,0.17818 -0.178181,0.57777 0,0.75595 0.35636,0.35636 1.155544,-0.35636 1.511904,0 0.178181,0.17818 -0.178179,0.57777 0,0.75596 0.265356,0.26535 3.2576,-0.26109 3.779763,0 0.637474,0.31873 0.874429,1.19316 1.511903,1.5119 0.410097,0.20505 2.816966,-0.20685 3.023812,0 0.178178,0.17818 -0.178181,0.57777 0,0.75595 0.178178,0.17818 0.503968,0 0.755952,0 0.251984,0 0.503967,0 0.755951,0 0.183338,0 2.243545,-0.0243 2.267858,0 0.178181,0.17818 -0.178181,0.57777 0,0.75595 0.206846,0.20685 2.613715,-0.20504 3.023809,0 0.318738,0.15937 0.437216,0.59659 0.755952,0.75596 0.225382,0.11269 0.577773,-0.17818 0.755954,0 0.178178,0.17818 -0.178181,0.57777 0,0.75595 0.356356,0.35636 1.061136,-0.22538 1.511906,0 0.31874,0.15937 0.43721,0.59658 0.75595,0.75595 0.47691,0.23846 3.30286,-0.23845 3.77976,0 0.31874,0.15937 0.43722,0.59658 0.75595,0.75595 0.23007,0.11503 1.92741,0 2.26786,0 0.18334,0 2.24355,-0.0243 2.26786,0 0.17818,0.17818 -0.17818,0.57778 0,0.75596 0.15454,0.15454 1.96813,-0.14987 2.26786,0 0.31873,0.15936 0.43721,0.59658 0.75595,0.75595 0.23006,0.11503 1.92741,0 2.26786,0 1.5119,0 3.0238,0 4.53571,0 2.77183,0 5.54365,0 8.31548,0 0.3953,0 2.82503,0.0994 3.0238,0 0.31874,-0.15937 0.43722,-0.59659 0.75596,-0.75595 0.22538,-0.1127 0.50396,0 0.75595,0 0.25198,0 0.50397,0 0.75595,0 1.25992,0 2.51984,0 3.77976,0 0.25199,0 0.53057,0.11269 0.75596,0 0.31873,-0.15937 0.43721,-0.59659 0.75595,-0.75596 0.29973,-0.14986 2.11331,0.15455 2.26786,0 0.17817,-0.17818 -0.22539,-0.64326 0,-0.75595 0.67614,-0.33807 1.59171,0.33807 2.26785,0 0.31874,-0.15937 0.41788,-0.64326 0.75596,-0.75595 0.41805,-0.13935 3.77443,0 4.53571,0 0.25198,0 0.50397,0 0.75595,0 0.25199,0 0.57778,0.17818 0.75595,0 0.17818,-0.17818 -0.17817,-0.57777 0,-0.75595 0.35636,-0.35636 1.06115,0.22538 1.51191,0 0.31874,-0.15937 0.43721,-0.59659 0.75595,-0.75596 0.41009,-0.20504 2.81696,0.20685 3.02381,0 0.17818,-0.17818 -0.11269,-0.53057 0,-0.75595 0.15937,-0.31874 0.50397,-0.50397 0.75595,-0.75595 0.25199,-0.25199 0.41788,-0.64326 0.75596,-0.75595 0.4781,-0.15937 1.06114,0.22538 1.5119,0 0.22538,-0.11269 -0.17818,-0.57778 0,-0.75595 0.17818,-0.17819 0.53057,0.11268 0.75595,0 0.31874,-0.15937 0.43722,-0.59659 0.75596,-0.75596 0.22538,-0.11269 0.50396,0 0.75595,0 0.25198,0 0.50396,0 0.75595,0 1.25992,0 2.51984,0 3.77976,0 0.25199,0 0.53057,0.11269 0.75595,0 0.63748,-0.31873 0.87443,-1.19317 1.51191,-1.5119 0.23006,-0.11503 1.92741,0 2.26786,0 2.01587,0 4.03174,0 6.04762,0 0.25198,0 0.50396,0 0.75595,0 0.25198,0 0.53057,0.11269 0.75595,0 0.31874,-0.15937 0.41788,-0.64326 0.75595,-0.75596 0.71716,-0.23905 1.51191,0 2.26786,0 0.35643,0 3.7455,0.0343 3.77976,0 0.17818,-0.17817 -0.17818,-0.57777 0,-0.75595 0.17818,-0.17818 0.50397,0 0.75595,0 0.5258,0 3.50639,0.13669 3.77977,0 0.31873,-0.15937 0.43721,-0.59658 0.75595,-0.75595 0.47513,-0.23757 2.54867,0.23757 3.02381,0 0.31873,-0.15937 0.43721,-0.59658 0.75595,-0.75595 0.45076,-0.22538 1.06114,0.22538 1.5119,0 0.31874,-0.15937 0.43722,-0.59659 0.75596,-0.75596 0.40083,-0.20041 3.26548,0.17143 3.77976,0 0.33807,-0.11268 0.43721,-0.59658 0.75595,-0.75595 0.60476,-0.30238 1.66309,0.30238 2.26786,0 0.31874,-0.15937 0.43721,-0.59658 0.75595,-0.75595 0.22538,-0.11269 0.50397,0 0.75595,0 0.50397,0 1.0338,0.15937 1.51191,0 0.33807,-0.11269 0.43721,-0.59658 0.75595,-0.75595 0.26355,-0.13177 3.98078,0 4.53571,0 3.02381,0 6.04762,0 9.07143,0 0.27762,0 2.99339,0.0304 3.02381,0 0.17818,-0.17818 -0.17818,-0.57777 0,-0.75595 0.23408,-0.23408 3.54568,0.23407 3.77976,0 1.5641,-1.5641 -2.39014,0.0611 0.75596,-1.51191 0.45076,-0.22538 1.06114,0.22538 1.5119,0 0.63748,-0.31874 0.87443,-1.19317 1.5119,-1.5119 0.4101,-0.20505 2.81697,0.20684 3.02382,0 0.17817,-0.17818 -0.17818,-0.57778 0,-0.75596 0.35636,-0.35635 1.15554,0.35636 1.5119,0 0.17818,-0.17818 -0.17818,-0.57777 0,-0.75595 0.17818,-0.17818 0.50397,0 0.75595,0 0.5258,0 3.50639,0.13669 3.77976,0 0.31874,-0.15937 0.43722,-0.59658 0.75596,-0.75595 0.21635,-0.10818 3.37592,0 3.77976,0 3.27579,0 6.55159,0 9.82738,0 1.09655,0 2.40398,0.48371 3.02381,-0.75595 0.11269,-0.22539 -0.17818,-0.57778 0,-0.75595 0.17818,-0.17819 0.50397,0 0.75595,0 0.50397,0 1.00794,0 1.51191,0 2.26785,0 4.53571,0 6.80356,0 1.7639,0 3.52779,0 5.29167,0 0.34046,0 2.03779,0.11503 2.26787,0 0.31872,-0.15937 0.4372,-0.59659 0.75594,-0.75596 0.29972,-0.14986 2.11331,0.15455 2.26785,0 0.1782,-0.17818 -0.17817,-0.57777 0,-0.75595 0.35637,-0.35636 1.15554,0.35636 1.51191,0 0.17817,-0.17818 -0.17817,-0.57777 0,-0.75595 0.35637,-0.35636 1.15554,0.35636 1.51191,0 0.17817,-0.17818 -0.17817,-0.57778 0,-0.75596 0.35637,-0.35636 1.06114,0.22539 1.51191,0 0.31874,-0.15936 0.43722,-0.59658 0.75594,-0.75595 0.4101,-0.20504 2.81697,0.20685 3.02382,0 1.00793,-1.00793 -1.25992,-0.75595 0.75594,-0.75595 0.25199,0 0.50398,0 0.75596,0 0.25199,0 0.57778,0.17818 0.75595,0 0.17819,-0.17818 -0.17817,-0.57777 0,-0.75595 0.17819,-0.17818 0.53056,0.11269 0.75596,0 0.31872,-0.15937 0.41789,-0.64326 0.75594,-0.75596 0.71716,-0.23905 1.51191,0 2.26785,0 1.25992,0 2.51987,0 3.77979,0 0.25196,0 0.50395,0 0.75594,0 0.25199,0 0.57777,0.17819 0.75594,0 0.1782,-0.17817 -0.17817,-0.57777 0,-0.75595 0.1782,-0.17818 0.50398,0 0.75597,0 0.25199,0 0.50395,0 0.75594,0 1.00796,0 2.01589,0 3.02382,0 0.50397,0 1.0338,0.15937 1.5119,0 0.53454,-0.17818 0.97738,-0.57777 1.51191,-0.75595 0.47811,-0.15937 1.15554,0.35636 1.51191,0 0.17817,-0.17818 -0.1782,-0.57777 0,-0.75595 0.1819,-0.18191 2.84189,0.1819 3.02379,0 0.1782,-0.17818 -0.17817,-0.57777 0,-0.75595 0.1819,-0.18191 2.84192,0.1819 3.02382,0 1.56408,-1.5641 -2.39014,0.0611 0.75594,-1.51191 0.47514,-0.23756 2.54868,0.23757 3.02382,0 0.31874,-0.15937 0.43722,-0.59658 0.75596,-0.75595 0.41008,-0.20505 2.81697,0.20684 3.0238,0 0.17819,-0.17818 -0.17817,-0.57777 0,-0.75595 0.23407,-0.23408 3.54568,0.23408 3.77975,0 0.1782,-0.17818 -0.17817,-0.57778 0,-0.75596 0.16164,-0.16162 2.60705,0.13893 3.02382,0 0.53454,-0.17818 0.97737,-0.57777 1.51191,-0.75595 0.59248,-0.19749 2.29288,0.12182 3.02382,0 1.26738,-0.21123 2.51237,-0.54472 3.77975,-0.75595 1.13393,-0.18899 0.75595,0.37797 2.26785,0 0.54663,-0.13666 0.97737,-0.57777 1.51191,-0.75595 0.4781,-0.15937 1.00793,0 1.51191,0 1.51191,0 3.02382,0 4.5357,0 0.25199,0 0.50398,0 0.75597,0 0.25199,0 0.53057,0.11269 0.75594,0 0.63749,-0.31874 0.87445,-1.19317 1.51191,-1.51191 0.22537,-0.11269 0.50398,0 0.75596,0 0.25197,0 0.50396,0 0.75595,0 1.25991,0 2.51983,0 3.77975,0 3.77976,0 7.55952,0 11.3393,0 0.25197,0 0.50396,0 0.75595,0 0.25198,0 0.57777,0.17818 0.75594,0 0.17819,-0.17818 -0.17817,-0.57777 0,-0.75595 0.17819,-0.17818 0.50397,0 0.75596,0 0.53581,0 4.34026,0.0977 4.5357,0 0.31875,-0.15937 0.43723,-0.59658 0.75597,-0.75595 0.4101,-0.20505 2.81697,0.20684 3.02382,0 0.17817,-0.17818 -0.2254,-0.64326 0,-0.75596 0.45074,-0.22538 1.06114,0.22539 1.51188,0 0.2254,-0.11268 -0.17817,-0.57777 0,-0.75595 0.35637,-0.35636 1.03381,0.15937 1.51191,0 0.53454,-0.17818 0.97737,-0.57777 1.51191,-0.75595 0.23905,-0.0797 0.53057,0.11269 0.75596,0 0.31872,-0.15937 0.4372,-0.59658 0.75595,-0.75595 0.22537,-0.11269 0.53056,0.11269 0.75594,0 0.31874,-0.15937 0.43722,-0.59659 0.75596,-0.75596 0.45077,-0.22538 1.06114,0.22539 1.51191,0 0.31872,-0.15936 0.4372,-0.59658 0.75594,-0.75595 0.22538,-0.11269 0.50398,0 0.75597,0 0.25196,0 0.50395,0 0.75594,0 0.25199,0 0.50398,0 0.75594,0 0.25199,0 0.75597,-0.25198 0.75597,0 0,0.25199 -1.00793,0 -0.75597,0 0.50398,0 1.00796,0 1.51191,0 0.50398,0 1.06114,0.22539 1.51191,0 0.22537,-0.11269 -0.17817,-0.57777 0,-0.75595 0.0607,-0.0607 3.18474,0 3.77976,0 0.25199,0 0.50398,0 0.75597,0 0.25198,0 0.53056,0.11269 0.75594,0 0.31874,-0.15937 0.43722,-0.59658 0.75596,-0.75595 0.41008,-0.20505 2.81697,0.20684 3.02379,0 0.1782,-0.17818 -0.17817,-0.57777 0,-0.75595 0.23408,-0.23408 3.54569,0.23408 3.77976,0 0.1782,-0.17818 -0.17817,-0.57778 0,-0.75596 0.20685,-0.20684 2.61372,0.20505 3.02382,0 0.31874,-0.15936 0.43722,-0.59658 0.75597,-0.75595 0.22537,-0.11269 0.53057,0.11269 0.75594,0 0.31874,-0.15937 0.43722,-0.59658 0.75594,-0.75595 0.45077,-0.22538 1.06116,0.22538 1.51191,0 0.31874,-0.15937 0.43722,-0.59658 0.75597,-0.75595 0.45074,-0.22538 1.09257,0.27955 1.5119,0 0.59301,-0.39535 0.91888,-1.11656 1.51189,-1.51191 0.20968,-0.13977 0.57779,0.17818 0.75596,0 0.17817,-0.17818 -0.17817,-0.57777 0,-0.75595 0.15455,-0.15454 1.96813,0.14986 2.26785,0 0.31875,-0.15937 0.43723,-0.59658 0.75597,-0.75595 0.47689,-0.23846 3.30285,0.23845 3.77976,0 0.31872,-0.15937 0.4372,-0.59659 0.75594,-0.75595 0.44603,-0.22302 1.74789,0.17332 2.26785,0 0.53454,-0.17818 0.97737,-0.57778 1.51191,-0.75596 0.23905,-0.0797 0.50398,0 0.75597,0 0.71196,0 3.34973,0.14335 3.77975,0 0.33806,-0.11269 0.43723,-0.59658 0.75594,-0.75595 0.2254,-0.11269 0.50398,0 0.75597,0 0.25199,0 0.50395,0 0.75594,0 1.25992,0 2.51984,0 3.77976,0"
       id="path5185"
       inkscape:connector-curvature="0" />
  </g>
</svg>
