<?xml version="1.0" encoding="UTF-8"?>
<!DOCTYPE svg PUBLIC "-//W3C//DTD SVG 1.0//EN" "http://www.w3.org/TR/2001/REC-SVG-20010904/DTD/svg10.dtd">
<svg xmlns="http://www.w3.org/2000/svg" xmlns:xlink="http://www.w3.org/1999/xlink" style="fill-opacity:1; color-rendering:auto; color-interpolation:auto; text-rendering:auto; stroke:black; stroke-linecap:square; stroke-miterlimit:10; shape-rendering:auto; stroke-opacity:1; fill:black; stroke-dasharray:none; font-weight:normal; stroke-width:1; font-family:'Dialog'; font-style:normal; stroke-linejoin:miter; font-size:12px; stroke-dashoffset:0; image-rendering:auto;" width="1366" height="768">
    <!--Generated by the Batik Graphics2D SVG Generator-->
    <defs id="genericDefs" />
    <g>
        <g style="stroke-linecap:butt; stroke-width:0.349;" transform="scale(0.9179,0.7298) matrix(3.5433,0,0,3.5433,0,0)">
            <path
			   style="fill:none;stroke:#000000;stroke-width:0.349;stroke-linecap:butt;stroke-linejoin:miter;stroke-opacity:1;stroke-miterlimit:4;stroke-dasharray:none"
			   d="m 19.690194,295.89154 c 0,0 -7.215859,-68.25862 -7.215859,-67.86177 0,0.39685 -5.6471955,-71.83029 -5.6471955,-71.83029 0,0 -1.4868307,-26.24119 1.5686641,-38.49469 C 11.773715,104.1583 19.136422,92.552258 26.278586,81.591215 30.466875,75.163467 43.847632,62.542297 43.847632,62.542297 L 68.94627,51.033577 176.24294,30.000396 361.65913,-1.7478007"
			   id="path01"
			   inkscape:connector-curvature="0"
			   sodipodi:nodetypes="cscsscccc"
			   inkscape:label="path01">
			  <desc
				 id="desc75">Ligne B</desc>
			</path>
        </g>
        <g style="stroke-linecap:butt; stroke-width:0.349;" transform="scale(0.9179,0.7298) matrix(3.5433,0,0,3.5433,0,0)">
            <path
				style="fill:none;stroke:#000000;stroke-width:0.349;stroke-linecap:butt;stroke-linejoin:miter;stroke-opacity:1;stroke-miterlimit:4;stroke-dasharray:none"
				d="m 21.886322,25.238167 c 4.392225,43.124275 8.784487,86.248913 12.967583,113.697963 4.183096,27.44906 8.15702,39.22226 14.118018,49.8713 5.960999,10.64904 13.908777,20.17334 22.850241,27.38289 8.941464,7.20955 18.876352,12.10407 28.602106,14.41902 9.72576,2.31495 19.24248,2.05038 41.72611,-0.85981 22.48363,-2.91018 57.93663,-8.46631 107.45385,-16.8663 49.51722,-8.4 113.10105,-19.64426 176.68389,-30.88834"
				id="path67"
				inkscape:connector-curvature="0"
				inkscape:path-effect="#path-effect69"
				inkscape:original-d="m 21.886322,25.238167 c 4.392574,43.12424 8.784837,86.248873 13.176786,129.373903 3.974294,11.77298 7.948212,23.54619 11.921855,35.31987 7.948338,9.52421 15.896113,19.04852 23.843704,28.57337 9.935177,4.89412 19.870065,9.78864 29.804633,14.68355 9.51672,-0.26497 19.03344,-0.52954 28.54969,-0.7937 35.45097,-5.55616 70.90397,-11.11228 106.35548,-16.66782 63.58292,-11.24443 127.16675,-22.48869 190.74965,-33.73245">
					<desc
					id="desc76">Ligne C
					</desc>
				</path>
            <rect x="209.8124" y="203.8218" width="18.1965" style="stroke-linecap:round; stroke:none; stroke-width:1;" height="27.7797" />
            <rect x="195.6944" y="10.1578" width="18.5102" style="stroke-linecap:round; stroke:none; stroke-width:1;" height="28.5734" />
        </g>
    </g>
</svg>